<svg width="357" height="357" viewBox="0 0 357 357" fill="none" xmlns="http://www.w3.org/2000/svg">
<g style="mix-blend-mode:exclusion">
<rect x="173.75" y="0.706865" width="41" height="41" transform="rotate(43.5019 173.75 0.706865)" stroke="#fff" stroke-opacity="0.7"/>
<rect x="115.926" y="61.6363" width="41" height="41" transform="rotate(43.5019 115.926 61.6363)" stroke="#fff" stroke-opacity="0.7"/>
<rect x="58.1025" y="122.566" width="41" height="41" transform="rotate(43.5019 58.1025 122.566)" stroke="#fff" stroke-opacity="0.7"/>
<rect x="265.144" y="87.4427" width="41" height="41" transform="rotate(43.5019 265.144 87.4427)" stroke="#fff" stroke-opacity="0.7"/>
<rect x="207.32" y="148.372" width="41" height="41" transform="rotate(43.5019 207.32 148.372)" stroke="#fff" stroke-opacity="0.7"/>
<rect x="149.497" y="209.302" width="41" height="41" transform="rotate(43.5019 149.497 209.302)" stroke="#fff" stroke-opacity="0.7"/>
<rect x="236.232" y="117.907" width="41" height="41" transform="rotate(43.5019 236.232 117.907)" stroke="#fff" stroke-opacity="0.7"/>
<rect x="178.409" y="178.837" width="41" height="41" transform="rotate(43.5019 178.409 178.837)" stroke="#fff" stroke-opacity="0.7"/>
<rect x="120.584" y="239.766" width="41" height="41" transform="rotate(43.5019 120.584 239.766)" stroke="#fff" stroke-opacity="0.7"/>
<rect x="144.838" y="31.1717" width="41" height="41" transform="rotate(43.5019 144.838 31.1717)" stroke="#fff" stroke-opacity="0.7"/>
<rect x="87.0141" y="92.1012" width="41" height="41" transform="rotate(43.5019 87.0141 92.1012)" stroke="#fff" stroke-opacity="0.7"/>
<rect x="29.1904" y="153.031" width="41" height="41" transform="rotate(43.5019 29.1904 153.031)" stroke="#fff" stroke-opacity="0.7"/>
<rect x="204.215" y="29.6187" width="41" height="41" transform="rotate(43.5019 204.215 29.6187)" stroke="#fff" stroke-opacity="0.7"/>
<rect x="146.391" y="90.5482" width="41" height="41" transform="rotate(43.5019 146.391 90.5482)" stroke="#fff" stroke-opacity="0.7"/>
<rect x="88.5668" y="151.478" width="41" height="41" transform="rotate(43.5019 88.5668 151.478)" stroke="#fff" stroke-opacity="0.7"/>
<rect x="295.609" y="116.355" width="41" height="41" transform="rotate(43.5019 295.609 116.355)" stroke="#fff" stroke-opacity="0.7"/>
<rect x="237.785" y="177.284" width="41" height="41" transform="rotate(43.5019 237.785 177.284)" stroke="#fff" stroke-opacity="0.7"/>
<rect x="179.961" y="238.213" width="41" height="41" transform="rotate(43.5019 179.961 238.213)" stroke="#fff" stroke-opacity="0.7"/>
<rect x="266.697" y="146.819" width="41" height="41" transform="rotate(43.5019 266.697 146.819)" stroke="#fff" stroke-opacity="0.7"/>
<rect x="208.873" y="207.749" width="41" height="41" transform="rotate(43.5019 208.873 207.749)" stroke="#fff" stroke-opacity="0.7"/>
<rect x="151.049" y="268.678" width="41" height="41" transform="rotate(43.5019 151.049 268.678)" stroke="#fff" stroke-opacity="0.7"/>
<rect x="175.303" y="60.0836" width="41" height="41" transform="rotate(43.5019 175.303 60.0836)" stroke="#fff" stroke-opacity="0.7"/>
<rect x="117.479" y="121.013" width="41" height="41" transform="rotate(43.5019 117.479 121.013)" stroke="#fff" stroke-opacity="0.7"/>
<rect x="59.6552" y="181.942" width="41" height="41" transform="rotate(43.5019 59.6552 181.942)" stroke="#fff" stroke-opacity="0.7"/>
<rect x="234.68" y="58.5306" width="41" height="41" transform="rotate(43.5019 234.68 58.5306)" stroke="#fff" stroke-opacity="0.7"/>
<rect x="176.855" y="119.46" width="41" height="41" transform="rotate(43.5019 176.855 119.46)" stroke="#fff" stroke-opacity="0.7"/>
<rect x="119.032" y="180.39" width="41" height="41" transform="rotate(43.5019 119.032 180.39)" stroke="#fff" stroke-opacity="0.7"/>
<rect x="326.074" y="145.266" width="41" height="41" transform="rotate(43.5019 326.074 145.266)" stroke="#fff" stroke-opacity="0.7"/>
<rect x="268.25" y="206.196" width="41" height="41" transform="rotate(43.5019 268.25 206.196)" stroke="#fff" stroke-opacity="0.7"/>
<rect x="210.426" y="267.126" width="41" height="41" transform="rotate(43.5019 210.426 267.126)" stroke="#fff" stroke-opacity="0.7"/>
<rect x="297.162" y="175.731" width="41" height="41" transform="rotate(43.5019 297.162 175.731)" stroke="#fff" stroke-opacity="0.7"/>
<rect x="239.338" y="236.661" width="41" height="41" transform="rotate(43.5019 239.338 236.661)" stroke="#fff" stroke-opacity="0.7"/>
<rect x="181.514" y="297.59" width="41" height="41" transform="rotate(43.5019 181.514 297.59)" stroke="#fff" stroke-opacity="0.7"/>
<rect x="205.768" y="88.9954" width="41" height="41" transform="rotate(43.5019 205.768 88.9954)" stroke="#fff" stroke-opacity="0.7"/>
<rect x="147.944" y="149.925" width="41" height="41" transform="rotate(43.5019 147.944 149.925)" stroke="#fff" stroke-opacity="0.7"/>
<rect x="90.12" y="210.855" width="41" height="41" transform="rotate(43.5019 90.12 210.855)" stroke="#fff" stroke-opacity="0.7"/>
</g>
</svg>
